<svg width="40" height="53" viewBox="0 0 40 53" fill="none" xmlns="http://www.w3.org/2000/svg">
<path d="M0 17.1194C0 26.8089 8.69859 34.6837 19.4863 34.6837V17.1194H0Z" fill="#635AD9"/>
<path d="M0 34.6494C0 44.3389 8.69859 52.2137 19.4863 52.2137V34.6494H0Z" fill="#219BE4"/>
<path d="M19.5239 17.1194C30.2737 17.1194 39.0103 24.96 39.0103 34.6837H19.5239V17.1194Z" fill="#88F4FF"/>
<path d="M39.0103 34.6494C39.0103 44.3389 30.3117 52.2137 19.5239 52.2137V34.6494H39.0103Z" fill="#7338AC"/>
<path d="M39.0103 17.5643C39.0103 7.87483 30.3117 0 19.5239 0V17.5643H39.0103Z" fill="#219BE4"/>
<path d="M0 17.5643C0 7.87483 8.69859 0 19.4863 0V17.5643H0Z" fill="#7338AC"/>
</svg>
